<svg width="109" height="110" viewBox="0 0 109 110" fill="none" xmlns="http://www.w3.org/2000/svg">
<path opacity="0.16" d="M54.5 109.5C84.475 109.5 109 84.975 109 55C109 25.025 84.475 0.5 54.5 0.5C24.525 0.5 0 25.025 0 55C0 84.975 24.525 109.5 54.5 109.5ZM56.135 29.3305C57.225 28.3495 58.533 27.75 59.95 27.75C61.4215 27.75 62.675 28.3495 63.8195 29.3305C64.855 30.475 65.4 31.783 65.4 33.2C65.4 34.6715 64.855 35.925 63.8195 37.0695C62.675 38.105 61.4215 38.65 59.95 38.65C58.533 38.65 57.225 38.105 56.135 37.0695C55.0995 35.925 54.5 34.6715 54.5 33.2C54.5 31.783 55.0995 30.475 56.135 29.3305ZM42.51 54.8365C42.51 54.8365 54.3365 45.4625 58.642 45.081C62.675 44.754 61.8575 49.3865 61.476 51.7845L61.4215 52.1115C60.6585 55 59.732 58.488 58.8055 61.8125C56.7345 69.388 54.718 76.8 55.2085 78.1625C55.7535 80.0155 59.1325 77.672 61.585 76.037C61.912 75.819 62.1845 75.601 62.457 75.4375C62.457 75.4375 62.893 75.0015 63.329 75.601C63.438 75.7645 63.547 75.928 63.656 76.037C64.1465 76.8 64.419 77.0725 63.765 77.5085L63.547 77.6175C62.348 78.435 57.225 82.032 55.154 83.34C52.9195 84.8115 44.363 89.7165 45.671 80.179C46.8155 73.4755 48.3415 67.6985 49.5405 63.175C51.775 55 52.756 51.294 47.742 54.5095C45.7255 55.7085 44.5265 56.4715 43.818 56.962C43.2185 57.398 43.164 57.398 42.7825 56.6895L42.619 56.3625L42.3465 55.9265C41.965 55.3815 41.965 55.327 42.51 54.8365Z" fill="#5754A3"/>
</svg>
