<svg width="18" height="19" viewBox="0 0 18 19" fill="none" xmlns="http://www.w3.org/2000/svg">
<path d="M12.2344 2.75C11.2939 2.75 10.4018 3.12125 9.738 3.78725L8.91225 4.613C8.58324 4.94012 8.3222 5.3291 8.14418 5.75754C7.96616 6.18599 7.87468 6.64542 7.875 7.10938C7.875 7.55544 7.9605 7.99025 8.12138 8.39244L9.03488 7.47838C8.97567 7.10458 9.00531 6.7221 9.1214 6.36189C9.2375 6.00168 9.43679 5.67387 9.70313 5.405L10.5294 4.57869C10.7534 4.35509 11.0193 4.17784 11.3118 4.0571C11.6044 3.93635 11.9179 3.87447 12.2344 3.875C12.8739 3.875 13.4691 4.12531 13.9219 4.57813C14.3704 5.02868 14.6223 5.63857 14.6223 6.27435C14.6223 6.91012 14.3704 7.52001 13.9219 7.97056L13.0956 8.79688C12.8715 9.02038 12.6056 9.19752 12.3131 9.31817C12.0205 9.43882 11.7071 9.50061 11.3906 9.5C11.2652 9.5 11.1426 9.48706 11.0216 9.46456L10.1076 10.3792C10.5158 10.5418 10.9512 10.6252 11.3906 10.625C12.3311 10.625 13.2233 10.2538 13.887 9.58775L14.7128 8.762C15.0418 8.43489 15.3028 8.0459 15.4808 7.61746C15.6588 7.18902 15.7503 6.72958 15.75 6.26563C15.75 5.32513 15.3788 4.45269 14.7128 3.78725C14.3893 3.4584 14.0035 3.19731 13.5779 3.01921C13.1524 2.84112 12.6957 2.7496 12.2344 2.75ZM10.8456 6.84556L6.34556 11.3456L7.15444 12.1544L11.6544 7.65444L10.8456 6.84556ZM6.60938 8.375C5.66888 8.375 4.77675 8.74625 4.113 9.41225L3.28725 10.2386C2.9583 10.5656 2.6973 10.9545 2.51929 11.3828C2.34127 11.8112 2.24975 12.2705 2.25 12.7344C2.25 13.6749 2.62125 14.5473 3.28725 15.2128C3.61075 15.5416 3.99652 15.8027 4.42205 15.9808C4.84758 16.1589 5.30433 16.2504 5.76563 16.25C6.70613 16.25 7.59825 15.8788 8.262 15.2128L9.08775 14.387C9.41677 14.0599 9.6778 13.6709 9.85582 13.2425C10.0338 12.814 10.1253 12.3546 10.125 11.8906C10.125 11.4446 10.0395 11.0098 9.87863 10.6076L8.96456 11.5216C9.02394 11.8955 8.99443 12.278 8.87843 12.6383C8.76243 12.9987 8.5632 13.3266 8.29688 13.5956L7.47056 14.4219C7.24653 14.6454 6.98064 14.8225 6.68809 14.9432C6.39554 15.0638 6.08208 15.1256 5.76563 15.125C5.45178 15.1255 5.14096 15.0636 4.85126 14.9429C4.56155 14.8222 4.29874 14.6451 4.07813 14.4219C3.62956 13.9713 3.37772 13.3614 3.37772 12.7257C3.37772 12.0899 3.62956 11.48 4.07813 11.0294L4.90444 10.2031C5.12847 9.97963 5.39436 9.80249 5.68691 9.68184C5.97946 9.56119 6.29293 9.4994 6.60938 9.5C6.73481 9.5 6.85744 9.51294 6.97838 9.53544L7.89244 8.62138C7.48426 8.45858 7.04882 8.37497 6.60938 8.375Z" fill="white"/>
</svg>
